<svg width="18" height="22" viewBox="0 0 18 22" fill="none" xmlns="http://www.w3.org/2000/svg">
<path d="M17.369 3.5H13.5L12.25 1.75C12.0837 1.51713 11.868 1.32813 11.62 1.19795C11.3721 1.06777 11.0987 1 10.8214 1L7.84524 1C7.56801 1 7.2946 1.06777 7.04664 1.19795C6.79869 1.32813 6.583 1.51713 6.41667 1.75L5.16667 3.5H1.29762C1.21869 3.5 1.14299 3.53292 1.08717 3.59153C1.03136 3.65013 1 3.72962 1 3.8125V4.4375C1 4.52038 1.03136 4.59987 1.08717 4.65847C1.14299 4.71708 1.21869 4.75 1.29762 4.75H2.00074L3.23586 19.293C3.2758 19.7592 3.48043 20.193 3.8095 20.5088C4.13856 20.8247 4.56827 20.9999 5.01414 21H13.6525C14.0984 20.9999 14.5281 20.8247 14.8572 20.5088C15.1862 20.193 15.3909 19.7592 15.4308 19.293L16.6659 4.75H17.369C17.448 4.75 17.5237 4.71708 17.5795 4.65847C17.6353 4.59987 17.6667 4.52038 17.6667 4.4375V3.8125C17.6667 3.72962 17.6353 3.65013 17.5795 3.59153C17.5237 3.53292 17.448 3.5 17.369 3.5ZM7.36905 2.5C7.42469 2.4226 7.49663 2.35976 7.57923 2.31639C7.66184 2.27302 7.75288 2.2503 7.84524 2.25H10.8214C10.9138 2.2503 11.0048 2.27302 11.0874 2.31639C11.17 2.35976 11.242 2.4226 11.2976 2.5L12.0119 3.5H6.65476L7.36905 2.5ZM14.244 19.1797C14.2318 19.3354 14.1641 19.4806 14.0545 19.5863C13.9449 19.692 13.8014 19.7504 13.6525 19.75H5.01414C4.86531 19.7504 4.72179 19.692 4.61217 19.5863C4.50255 19.4806 4.43487 19.3354 4.42262 19.1797L3.19494 4.75H15.4717L14.244 19.1797Z" fill="white" stroke="white" stroke-width="0.5"/>
</svg>
