<svg width="30" height="30" viewBox="0 0 30 30" fill="none" xmlns="http://www.w3.org/2000/svg">
<circle cx="15.0001" cy="15" r="14" fill="#F32E2E" stroke="white" stroke-width="2"/>
<path d="M20.7857 8.75H18L17.1 7.525C16.9802 7.36199 16.8249 7.22969 16.6464 7.13856C16.4679 7.04744 16.271 7 16.0714 7H13.9286C13.729 7 13.5321 7.04744 13.3536 7.13856C13.1751 7.22969 13.0198 7.36199 12.9 7.525L12 8.75H9.21429C9.15745 8.75 9.10295 8.77305 9.06276 8.81407C9.02258 8.85509 9 8.91073 9 8.96875V9.40625C9 9.46427 9.02258 9.51991 9.06276 9.56093C9.10295 9.60195 9.15745 9.625 9.21429 9.625H9.72054L10.6098 19.8051C10.6386 20.1315 10.7859 20.4351 11.0228 20.6562C11.2598 20.8773 11.5692 21 11.8902 21H18.1098C18.4308 21 18.7402 20.8773 18.9772 20.6562C19.2141 20.4351 19.3614 20.1315 19.3902 19.8051L20.2795 9.625H20.7857C20.8425 9.625 20.8971 9.60195 20.9372 9.56093C20.9774 9.51991 21 9.46427 21 9.40625V8.96875C21 8.91073 20.9774 8.85509 20.9372 8.81407C20.8971 8.77305 20.8425 8.75 20.7857 8.75ZM13.5857 8.05C13.6258 7.99582 13.6776 7.95183 13.737 7.92147C13.7965 7.89112 13.8621 7.87521 13.9286 7.875H16.0714C16.1379 7.87521 16.2035 7.89112 16.263 7.92147C16.3224 7.95183 16.3742 7.99582 16.4143 8.05L16.9286 8.75H13.0714L13.5857 8.05ZM18.5357 19.7258C18.5269 19.8348 18.4782 19.9364 18.3992 20.0104C18.3203 20.0844 18.217 20.1253 18.1098 20.125H11.8902C11.783 20.1253 11.6797 20.0844 11.6008 20.0104C11.5218 19.9364 11.4731 19.8348 11.4643 19.7258L10.5804 9.625H19.4196L18.5357 19.7258Z" fill="white" stroke="white" stroke-width="0.5"/>
</svg>
