<svg width="20" height="20" viewBox="0 0 20 20" fill="none" xmlns="http://www.w3.org/2000/svg">
<path d="M19.2676 2.19766L17.8024 0.732422C17.3145 0.244141 16.6746 0 16.0348 0C15.395 0 14.7551 0.244141 14.2668 0.732031L0.501992 14.4969L0.00589837 18.9586C-0.0566016 19.5203 0.385976 20 0.935586 20C0.970352 20 1.00512 19.998 1.04066 19.9941L5.49926 19.5016L19.268 5.73281C20.2442 4.75664 20.2442 3.17383 19.2676 2.19766ZM4.92543 18.3078L1.29145 18.7105L1.69613 15.0711L12.0043 4.76289L15.2375 7.99609L4.92543 18.3078ZM18.384 4.84922L16.1211 7.11211L12.8879 3.87891L15.1508 1.61602C15.3868 1.38008 15.7008 1.25 16.0348 1.25C16.3688 1.25 16.6825 1.38008 16.9188 1.61602L18.384 3.08125C18.8711 3.56875 18.8711 4.36172 18.384 4.84922Z" fill="white"/>
</svg>
