<svg width="30" height="27" viewBox="0 0 30 27" fill="none" xmlns="http://www.w3.org/2000/svg">
<path fill-rule="evenodd" clip-rule="evenodd" d="M15 0C15.306 0 15.5995 0.118527 15.8159 0.329505C16.0323 0.540484 16.1538 0.826631 16.1538 1.125V25.875C16.1538 26.1734 16.0323 26.4595 15.8159 26.6705C15.5995 26.8815 15.306 27 15 27C14.694 27 14.4005 26.8815 14.1841 26.6705C13.9677 26.4595 13.8462 26.1734 13.8462 25.875V1.125C13.8462 0.826631 13.9677 0.540484 14.1841 0.329505C14.4005 0.118527 14.694 0 15 0ZM10.3846 4.5C10.6906 4.5 10.9841 4.61853 11.2005 4.8295C11.4169 5.04048 11.5385 5.32663 11.5385 5.625V21.375C11.5385 21.6734 11.4169 21.9595 11.2005 22.1705C10.9841 22.3815 10.6906 22.5 10.3846 22.5C10.0786 22.5 9.78511 22.3815 9.56872 22.1705C9.35233 21.9595 9.23077 21.6734 9.23077 21.375V5.625C9.23077 5.32663 9.35233 5.04048 9.56872 4.8295C9.78511 4.61853 10.0786 4.5 10.3846 4.5ZM19.6154 4.5C19.9214 4.5 20.2149 4.61853 20.4313 4.8295C20.6477 5.04048 20.7692 5.32663 20.7692 5.625V21.375C20.7692 21.6734 20.6477 21.9595 20.4313 22.1705C20.2149 22.3815 19.9214 22.5 19.6154 22.5C19.3094 22.5 19.0159 22.3815 18.7995 22.1705C18.5831 21.9595 18.4615 21.6734 18.4615 21.375V5.625C18.4615 5.32663 18.5831 5.04048 18.7995 4.8295C19.0159 4.61853 19.3094 4.5 19.6154 4.5ZM5.76923 7.875C6.07525 7.875 6.36873 7.99353 6.58512 8.2045C6.80151 8.41548 6.92308 8.70163 6.92308 9V18C6.92308 18.2984 6.80151 18.5845 6.58512 18.7955C6.36873 19.0065 6.07525 19.125 5.76923 19.125C5.46321 19.125 5.16973 19.0065 4.95334 18.7955C4.73695 18.5845 4.61538 18.2984 4.61538 18V9C4.61538 8.70163 4.73695 8.41548 4.95334 8.2045C5.16973 7.99353 5.46321 7.875 5.76923 7.875ZM24.2308 7.875C24.5368 7.875 24.8303 7.99353 25.0467 8.2045C25.2631 8.41548 25.3846 8.70163 25.3846 9V18C25.3846 18.2984 25.2631 18.5845 25.0467 18.7955C24.8303 19.0065 24.5368 19.125 24.2308 19.125C23.9247 19.125 23.6313 19.0065 23.4149 18.7955C23.1985 18.5845 23.0769 18.2984 23.0769 18V9C23.0769 8.70163 23.1985 8.41548 23.4149 8.2045C23.6313 7.99353 23.9247 7.875 24.2308 7.875ZM1.15385 10.125C1.45987 10.125 1.75335 10.2435 1.96974 10.4545C2.18613 10.6655 2.30769 10.9516 2.30769 11.25V15.75C2.30769 16.0484 2.18613 16.3345 1.96974 16.5455C1.75335 16.7565 1.45987 16.875 1.15385 16.875C0.847827 16.875 0.554342 16.7565 0.337954 16.5455C0.121566 16.3345 0 16.0484 0 15.75V11.25C0 10.9516 0.121566 10.6655 0.337954 10.4545C0.554342 10.2435 0.847827 10.125 1.15385 10.125ZM28.8462 10.125C29.1522 10.125 29.4457 10.2435 29.662 10.4545C29.8784 10.6655 30 10.9516 30 11.25V15.75C30 16.0484 29.8784 16.3345 29.662 16.5455C29.4457 16.7565 29.1522 16.875 28.8462 16.875C28.5401 16.875 28.2466 16.7565 28.0303 16.5455C27.8139 16.3345 27.6923 16.0484 27.6923 15.75V11.25C27.6923 10.9516 27.8139 10.6655 28.0303 10.4545C28.2466 10.2435 28.5401 10.125 28.8462 10.125Z" fill="white"/>
</svg>
