<svg width="20" height="14" viewBox="0 0 20 14" fill="none" xmlns="http://www.w3.org/2000/svg">
<path d="M18.3333 4.16667V2.5H16.6667V4.16667H15V5.83333H16.6667V7.5H18.3333V5.83333H20V4.16667H18.3333ZM6.66667 6.66667C8.50833 6.66667 10 5.175 10 3.33333C10 1.49167 8.50833 0 6.66667 0C4.825 0 3.33333 1.49167 3.33333 3.33333C3.33333 5.175 4.825 6.66667 6.66667 6.66667ZM6.66667 1.66667C7.58333 1.66667 8.33333 2.41667 8.33333 3.33333C8.33333 4.25 7.58333 5 6.66667 5C5.75 5 5 4.25 5 3.33333C5 2.41667 5.75 1.66667 6.66667 1.66667ZM6.66667 7.5C4.44167 7.5 0 8.61667 0 10.8333V13.3333H13.3333V10.8333C13.3333 8.61667 8.89167 7.5 6.66667 7.5ZM11.6667 11.6667H1.66667V10.8417C1.83333 10.2417 4.41667 9.16667 6.66667 9.16667C8.91667 9.16667 11.5 10.2417 11.6667 10.8333V11.6667ZM10.425 0.0416668C11.1917 0.925 11.6667 2.075 11.6667 3.33333C11.6667 4.59167 11.1917 5.74167 10.425 6.625C12.0583 6.41667 13.3333 5.03333 13.3333 3.33333C13.3333 1.63333 12.0583 0.25 10.425 0.0416668ZM13.775 8.19167C14.5167 8.88333 15 9.75 15 10.8333V13.3333H16.6667V10.8333C16.6667 9.625 15.3417 8.74167 13.775 8.19167Z" fill="white"/>
</svg>
