<svg width="216" height="106" viewBox="0 0 216 106" fill="none" xmlns="http://www.w3.org/2000/svg">
<path d="M1.28127 18.9647L1 19.2554L1 19.66C0.999997 30.4676 1.05582 45.1769 3.3459 59.0521C4.52368 66.188 8.72513 73.2917 13.3578 79.2005C18.003 85.1251 23.1626 89.9502 26.3972 92.5379C31.3546 96.5038 37.8066 100.5 46.8107 103.93L47.1536 104.061L47.4995 103.939C49.4013 103.268 51.0016 102.39 53.1579 101.09C53.7763 100.717 54.4406 100.309 55.1732 99.8597C57.0054 98.7354 59.2647 97.3492 62.2994 95.5911C73.4645 89.1229 84.5094 79.3987 89.2678 62.3119C91.1676 55.4897 91.9827 46.3145 92.1352 37.8587C92.2877 29.4039 91.7794 21.5503 90.9833 17.3531L90.9259 17.0503L90.708 16.8324C87.4082 13.5326 81.2083 9.42151 73.3395 6.22012C65.4566 3.01304 55.8266 0.688923 45.6485 1.03394C25.3534 1.72191 7.7391 12.2892 1.28127 18.9647Z" fill="#DBE9F9" stroke="white" stroke-width="2"/>
<path d="M7.08936 45.0795L14.9352 38.718V47.8362L11.5424 51.441C12.3906 60.3471 14.4893 67.3639 20.2365 73.9184C28.4175 83.2486 38.5435 87.9137 44.8343 91.0944V25.1468H46.9548V97.4559C40.664 93.9218 26.81 88.5498 17.9039 77.5232C11.2712 69.3113 7.58414 52.784 7.08936 45.0795Z" fill="#5495DA"/>
<path d="M86.8201 45.0795L78.9742 38.718V47.8362L82.367 51.441C81.5188 60.3471 79.4201 67.3639 73.673 73.9184C65.4919 83.2486 55.3659 87.9137 49.0751 91.0944V25.1468H46.9546V97.4559C53.2454 93.9218 67.0994 88.5498 76.0055 77.5232C82.6382 69.3113 86.3253 52.784 86.8201 45.0795Z" fill="#173B62"/>
<path d="M44.8343 6.06226V21.5419C42.0776 21.5419 40.1692 22.1781 36.7764 24.1412C36.946 69.561 36.847 79.9264 36.7764 81.1281L21.5087 64.8002V30.5035C16.2075 32.3565 10.8679 37.4488 7.51343 39.7782V22.1781C11.8251 19.068 15.7834 14.7128 25.1136 11.3635C33.3836 8.39481 39.533 6.91046 44.8343 6.06226Z" fill="#173B62"/>
<path d="M49.0751 6.06226V21.5419C51.8318 21.5419 53.7403 22.1781 57.1331 24.1412C56.9634 69.561 57.0624 79.9264 57.1331 81.1281L72.4007 64.8002V30.5035C77.7019 32.3565 83.0415 37.4488 86.396 39.7782V22.1781C82.0843 19.068 78.126 14.7128 68.7958 11.3635C60.5259 8.39481 54.3764 6.91046 49.0751 6.06226Z" fill="#5495DA"/>
<path d="M108.271 50.8921H105.368V60.4351C105.368 60.9847 105.245 61.3939 105 61.6627C104.756 61.9255 104.439 62.057 104.051 62.057C103.656 62.057 103.334 61.9225 103.083 61.6537C102.838 61.3849 102.716 60.9787 102.716 60.4351V50.8921H99.8123C99.3583 50.8921 99.0208 50.7936 98.7998 50.5965C98.5788 50.3933 98.4683 50.1275 98.4683 49.799C98.4683 49.4585 98.5818 49.1897 98.8088 48.9925C99.0417 48.7954 99.3763 48.6968 99.8123 48.6968H108.271C108.731 48.6968 109.072 48.7984 109.293 49.0015C109.52 49.2046 109.633 49.4704 109.633 49.799C109.633 50.1275 109.52 50.3933 109.293 50.5965C109.066 50.7936 108.725 50.8921 108.271 50.8921ZM116.703 57.6842H111.918C111.924 58.2398 112.034 58.7296 112.25 59.1537C112.471 59.5779 112.76 59.8975 113.119 60.1125C113.483 60.3275 113.883 60.4351 114.319 60.4351C114.612 60.4351 114.878 60.4022 115.117 60.3365C115.362 60.2648 115.598 60.1573 115.825 60.0139C116.052 59.8646 116.261 59.7063 116.452 59.539C116.643 59.3718 116.891 59.1448 117.196 58.858C117.321 58.7505 117.5 58.6968 117.733 58.6968C117.984 58.6968 118.187 58.7655 118.343 58.9028C118.498 59.0403 118.576 59.2344 118.576 59.4853C118.576 59.7063 118.489 59.9661 118.316 60.2648C118.143 60.5576 117.88 60.8413 117.527 61.1161C117.181 61.3849 116.742 61.6089 116.21 61.7881C115.684 61.9673 115.078 62.057 114.391 62.057C112.82 62.057 111.598 61.6089 110.726 60.7128C109.854 59.8168 109.418 58.6012 109.418 57.0659C109.418 56.3431 109.526 55.6741 109.741 55.0588C109.956 54.4375 110.269 53.9059 110.681 53.4638C111.094 53.0217 111.601 52.6842 112.205 52.4513C112.808 52.2123 113.477 52.0928 114.212 52.0928C115.168 52.0928 115.986 52.296 116.667 52.7022C117.354 53.1024 117.868 53.6221 118.208 54.2613C118.549 54.9005 118.719 55.5516 118.719 56.2147C118.719 56.83 118.543 57.2302 118.19 57.4154C117.838 57.5946 117.342 57.6842 116.703 57.6842ZM111.918 56.2953H116.353C116.294 55.459 116.067 54.8348 115.672 54.4226C115.284 54.0044 114.77 53.7954 114.131 53.7954C113.522 53.7954 113.02 54.0074 112.626 54.4316C112.238 54.8497 112.002 55.471 111.918 56.2953ZM129.561 59.0283C129.561 59.333 129.469 59.6585 129.283 60.005C129.104 60.3514 128.826 60.683 128.45 60.9996C128.08 61.3102 127.611 61.5611 127.043 61.7523C126.476 61.9434 125.837 62.039 125.126 62.039C123.614 62.039 122.435 61.5999 121.586 60.7218C120.738 59.8377 120.314 58.6549 120.314 57.1735C120.314 56.1699 120.508 55.2828 120.896 54.5122C121.285 53.7416 121.846 53.1472 122.581 52.729C123.316 52.3049 124.194 52.0928 125.215 52.0928C125.849 52.0928 126.428 52.1854 126.954 52.3706C127.485 52.5558 127.933 52.7947 128.298 53.0875C128.668 53.3802 128.949 53.6938 129.14 54.0283C129.337 54.3569 129.436 54.6645 129.436 54.9513C129.436 55.244 129.325 55.4919 129.104 55.695C128.889 55.8981 128.626 55.9996 128.316 55.9996C128.113 55.9996 127.942 55.9489 127.805 55.8473C127.674 55.7398 127.524 55.5695 127.357 55.3366C127.058 54.8826 126.745 54.5421 126.416 54.3151C126.094 54.0881 125.681 53.9746 125.18 53.9746C124.457 53.9746 123.874 54.2583 123.432 54.8258C122.99 55.3874 122.769 56.158 122.769 57.1376C122.769 57.5976 122.826 58.0217 122.939 58.41C123.053 58.7923 123.217 59.1209 123.432 59.3957C123.647 59.6645 123.907 59.8706 124.212 60.0139C124.516 60.1513 124.851 60.22 125.215 60.22C125.705 60.22 126.123 60.1065 126.47 59.8795C126.822 59.6525 127.133 59.3061 127.402 58.8401C127.551 58.5653 127.712 58.3503 127.886 58.195C128.059 58.0396 128.271 57.962 128.522 57.962C128.82 57.962 129.068 58.0755 129.266 58.3025C129.463 58.5295 129.561 58.7714 129.561 59.0283ZM133.629 49.9603V53.5893C133.94 53.2308 134.242 52.9471 134.534 52.738C134.833 52.5289 135.162 52.3736 135.52 52.2721C135.878 52.1645 136.264 52.1108 136.676 52.1108C137.297 52.1108 137.847 52.2422 138.325 52.5051C138.809 52.7679 139.188 53.1502 139.463 53.652C139.636 53.9447 139.752 54.2733 139.812 54.6376C139.872 54.9961 139.902 55.4112 139.902 55.8832V60.5695C139.902 61.0594 139.788 61.4297 139.561 61.6806C139.34 61.9315 139.044 62.057 138.674 62.057C137.868 62.057 137.464 61.5611 137.464 60.5695V56.4387C137.464 55.6562 137.348 55.0558 137.115 54.6376C136.882 54.2135 136.44 54.0014 135.789 54.0014C135.353 54.0014 134.958 54.1269 134.606 54.3778C134.26 54.6227 134 54.9602 133.826 55.3903C133.695 55.7547 133.629 56.4029 133.629 57.3347V60.5695C133.629 61.0534 133.519 61.4237 133.298 61.6806C133.083 61.9315 132.781 62.057 132.393 62.057C131.586 62.057 131.183 61.5611 131.183 60.5695V49.9603C131.183 49.4644 131.288 49.0941 131.497 48.8491C131.712 48.5983 132.01 48.4728 132.393 48.4728C132.781 48.4728 133.083 48.5983 133.298 48.8491C133.519 49.1 133.629 49.4704 133.629 49.9603ZM144.552 53.4638V53.7595C144.982 53.192 145.451 52.7768 145.959 52.514C146.473 52.2452 147.061 52.1108 147.724 52.1108C148.369 52.1108 148.946 52.2511 149.453 52.5319C149.961 52.8127 150.34 53.2099 150.592 53.7237C150.753 54.0224 150.857 54.3449 150.905 54.6914C150.953 55.0379 150.977 55.4799 150.977 56.0176V60.5695C150.977 61.0594 150.863 61.4297 150.636 61.6806C150.415 61.9315 150.126 62.057 149.767 62.057C149.403 62.057 149.107 61.9285 148.88 61.6716C148.653 61.4148 148.54 61.0474 148.54 60.5695V56.4925C148.54 55.686 148.426 55.0707 148.199 54.6466C147.978 54.2165 147.533 54.0014 146.864 54.0014C146.428 54.0014 146.031 54.1329 145.672 54.3957C145.314 54.6526 145.051 55.008 144.884 55.462C144.764 55.8264 144.704 56.5074 144.704 57.505V60.5695C144.704 61.0653 144.588 61.4387 144.355 61.6896C144.128 61.9345 143.832 62.057 143.468 62.057C143.116 62.057 142.826 61.9285 142.599 61.6716C142.372 61.4148 142.258 61.0474 142.258 60.5695V53.4996C142.258 53.0337 142.36 52.6872 142.563 52.4602C142.766 52.2273 143.044 52.1108 143.396 52.1108C143.611 52.1108 143.805 52.1616 143.979 52.2631C144.152 52.3647 144.289 52.517 144.391 52.7201C144.498 52.9232 144.552 53.1711 144.552 53.4638ZM162.581 57.0838C162.581 57.8126 162.467 58.4847 162.24 59.1C162.013 59.7152 161.685 60.2439 161.255 60.686C160.824 61.128 160.311 61.4685 159.714 61.7075C159.116 61.9405 158.444 62.057 157.697 62.057C156.956 62.057 156.29 61.9375 155.699 61.6985C155.108 61.4596 154.594 61.1191 154.158 60.677C153.728 60.229 153.399 59.7033 153.172 59.1C152.951 58.4907 152.841 57.8186 152.841 57.0838C152.841 56.3431 152.954 55.6651 153.181 55.0498C153.408 54.4345 153.734 53.9088 154.158 53.4728C154.582 53.0367 155.096 52.7022 155.699 52.4692C156.302 52.2303 156.969 52.1108 157.697 52.1108C158.438 52.1108 159.11 52.2303 159.714 52.4692C160.317 52.7081 160.833 53.0486 161.263 53.4907C161.694 53.9327 162.019 54.4584 162.24 55.0677C162.467 55.677 162.581 56.3491 162.581 57.0838ZM160.126 57.0838C160.126 56.0862 159.904 55.3097 159.462 54.7541C159.026 54.1986 158.438 53.9208 157.697 53.9208C157.219 53.9208 156.798 54.0463 156.434 54.2971C156.069 54.5421 155.789 54.9064 155.591 55.3903C155.394 55.8742 155.296 56.4387 155.296 57.0838C155.296 57.723 155.391 58.2816 155.583 58.7595C155.78 59.2374 156.058 59.6047 156.416 59.8616C156.78 60.1125 157.207 60.238 157.697 60.238C158.438 60.238 159.026 59.9602 159.462 59.4046C159.904 58.8431 160.126 58.0695 160.126 57.0838ZM164.516 60.5695V49.9603C164.516 49.4704 164.624 49.1 164.839 48.8491C165.06 48.5983 165.355 48.4728 165.726 48.4728C166.096 48.4728 166.395 48.5983 166.622 48.8491C166.849 49.0941 166.963 49.4644 166.963 49.9603V60.5695C166.963 61.0653 166.846 61.4387 166.613 61.6896C166.386 61.9345 166.09 62.057 165.726 62.057C165.367 62.057 165.075 61.9285 164.848 61.6716C164.627 61.4148 164.516 61.0474 164.516 60.5695ZM178.656 57.0838C178.656 57.8126 178.542 58.4847 178.315 59.1C178.088 59.7152 177.76 60.2439 177.33 60.686C176.9 61.128 176.386 61.4685 175.788 61.7075C175.191 61.9405 174.519 62.057 173.772 62.057C173.032 62.057 172.366 61.9375 171.774 61.6985C171.183 61.4596 170.669 61.1191 170.233 60.677C169.803 60.229 169.474 59.7033 169.247 59.1C169.026 58.4907 168.916 57.8186 168.916 57.0838C168.916 56.3431 169.029 55.6651 169.256 55.0498C169.483 54.4345 169.809 53.9088 170.233 53.4728C170.657 53.0367 171.171 52.7022 171.774 52.4692C172.378 52.2303 173.044 52.1108 173.772 52.1108C174.513 52.1108 175.185 52.2303 175.788 52.4692C176.392 52.7081 176.909 53.0486 177.339 53.4907C177.769 53.9327 178.094 54.4584 178.315 55.0677C178.542 55.677 178.656 56.3491 178.656 57.0838ZM176.201 57.0838C176.201 56.0862 175.98 55.3097 175.538 54.7541C175.102 54.1986 174.513 53.9208 173.772 53.9208C173.294 53.9208 172.873 54.0463 172.509 54.2971C172.145 54.5421 171.864 54.9064 171.667 55.3903C171.47 55.8742 171.371 56.4387 171.371 57.0838C171.371 57.723 171.467 58.2816 171.658 58.7595C171.855 59.2374 172.132 59.6047 172.491 59.8616C172.855 60.1125 173.283 60.238 173.772 60.238C174.513 60.238 175.102 59.9602 175.538 59.4046C175.98 58.8431 176.201 58.0695 176.201 57.0838ZM189.588 53.9029V61.0086C189.588 61.821 189.501 62.5199 189.328 63.1053C189.155 63.6907 188.877 64.1746 188.495 64.5569C188.112 64.9392 187.611 65.223 186.989 65.4082C186.374 65.5934 185.606 65.6859 184.686 65.6859C183.844 65.6859 183.091 65.5665 182.428 65.3275C181.765 65.0945 181.254 64.7899 180.896 64.4135C180.538 64.0432 180.359 63.6609 180.359 63.2666C180.359 62.9679 180.46 62.723 180.663 62.5318C180.866 62.3466 181.111 62.2541 181.398 62.2541C181.756 62.2541 182.07 62.4124 182.339 62.729C182.47 62.8903 182.604 63.0516 182.742 63.2129C182.885 63.3801 183.041 63.5205 183.208 63.634C183.381 63.7534 183.587 63.8401 183.826 63.8938C184.065 63.9536 184.34 63.9835 184.65 63.9835C185.284 63.9835 185.774 63.8938 186.12 63.7147C186.472 63.5414 186.717 63.2965 186.855 62.9799C186.998 62.6633 187.082 62.3228 187.105 61.9584C187.129 61.5999 187.147 61.0205 187.159 60.22C186.783 60.7457 186.347 61.146 185.851 61.4208C185.361 61.6956 184.776 61.8329 184.095 61.8329C183.276 61.8329 182.56 61.6238 181.944 61.2057C181.335 60.7875 180.866 60.2021 180.538 59.4494C180.209 58.6968 180.045 57.8276 180.045 56.8419C180.045 56.1072 180.143 55.4441 180.341 54.8527C180.543 54.2613 180.83 53.7625 181.2 53.3563C181.571 52.9501 181.998 52.6454 182.482 52.4423C182.966 52.2332 183.498 52.1287 184.077 52.1287C184.77 52.1287 185.37 52.2631 185.878 52.5319C186.386 52.7947 186.858 53.2099 187.294 53.7774V53.4459C187.294 53.0217 187.398 52.6932 187.608 52.4602C187.816 52.2273 188.085 52.1108 188.414 52.1108C188.886 52.1108 189.199 52.2661 189.355 52.5767C189.51 52.8814 189.588 53.3234 189.588 53.9029ZM182.5 57.0032C182.5 57.9948 182.715 58.7445 183.145 59.2523C183.581 59.7601 184.143 60.0139 184.83 60.0139C185.236 60.0139 185.618 59.9064 185.977 59.6914C186.341 59.4703 186.637 59.1418 186.864 58.7057C187.091 58.2637 187.204 57.729 187.204 57.1018C187.204 56.1042 186.983 55.3276 186.541 54.772C186.105 54.2165 185.528 53.9387 184.812 53.9387C184.113 53.9387 183.551 54.2046 183.127 54.7362C182.709 55.2679 182.5 56.0235 182.5 57.0032ZM194.507 53.4996V60.5695C194.507 61.0594 194.391 61.4297 194.157 61.6806C193.924 61.9315 193.629 62.057 193.27 62.057C192.912 62.057 192.619 61.9285 192.392 61.6716C192.171 61.4148 192.061 61.0474 192.061 60.5695V53.5713C192.061 53.0875 192.171 52.7231 192.392 52.4781C192.619 52.2332 192.912 52.1108 193.27 52.1108C193.629 52.1108 193.924 52.2332 194.157 52.4781C194.391 52.7231 194.507 53.0636 194.507 53.4996ZM193.297 50.9728C192.957 50.9728 192.664 50.8683 192.419 50.6592C192.18 50.4501 192.061 50.1544 192.061 49.7721C192.061 49.4256 192.183 49.1419 192.428 48.9208C192.679 48.6938 192.969 48.5803 193.297 48.5803C193.614 48.5803 193.895 48.6819 194.139 48.885C194.385 49.0881 194.507 49.3838 194.507 49.7721C194.507 50.1484 194.388 50.4441 194.149 50.6592C193.91 50.8683 193.626 50.9728 193.297 50.9728ZM203.871 57.6842H199.086C199.092 58.2398 199.202 58.7296 199.417 59.1537C199.638 59.5779 199.928 59.8975 200.286 60.1125C200.651 60.3275 201.051 60.4351 201.487 60.4351C201.78 60.4351 202.046 60.4022 202.285 60.3365C202.53 60.2648 202.766 60.1573 202.992 60.0139C203.22 59.8646 203.429 59.7063 203.62 59.539C203.811 59.3718 204.059 59.1448 204.364 58.858C204.489 58.7505 204.668 58.6968 204.901 58.6968C205.152 58.6968 205.355 58.7655 205.511 58.9028C205.666 59.0403 205.744 59.2344 205.744 59.4853C205.744 59.7063 205.657 59.9661 205.484 60.2648C205.311 60.5576 205.047 60.8413 204.695 61.1161C204.349 61.3849 203.91 61.6089 203.378 61.7881C202.852 61.9673 202.246 62.057 201.559 62.057C199.988 62.057 198.766 61.6089 197.894 60.7128C197.022 59.8168 196.586 58.6012 196.586 57.0659C196.586 56.3431 196.693 55.6741 196.908 55.0588C197.123 54.4375 197.437 53.9059 197.849 53.4638C198.262 53.0217 198.769 52.6842 199.372 52.4513C199.976 52.2123 200.645 52.0928 201.38 52.0928C202.335 52.0928 203.154 52.296 203.835 52.7022C204.522 53.1024 205.036 53.6221 205.376 54.2613C205.716 54.9005 205.887 55.5516 205.887 56.2147C205.887 56.83 205.711 57.2302 205.358 57.4154C205.006 57.5946 204.51 57.6842 203.871 57.6842ZM199.086 56.2953H203.521C203.461 55.459 203.235 54.8348 202.84 54.4226C202.452 54.0044 201.938 53.7954 201.299 53.7954C200.69 53.7954 200.188 54.0074 199.794 54.4316C199.406 54.8497 199.17 55.471 199.086 56.2953ZM215.833 58.858C215.833 59.5331 215.669 60.1125 215.34 60.5964C215.012 61.0743 214.525 61.4387 213.88 61.6896C213.24 61.9345 212.461 62.057 211.541 62.057C210.663 62.057 209.91 61.9225 209.283 61.6537C208.656 61.3849 208.193 61.0504 207.894 60.6501C207.595 60.2439 207.446 59.8377 207.446 59.4315C207.446 59.1627 207.542 58.9327 207.733 58.7415C207.924 58.5504 208.166 58.4548 208.458 58.4548C208.715 58.4548 208.912 58.5175 209.05 58.643C209.187 58.7684 209.319 58.9446 209.444 59.1716C209.695 59.6077 209.994 59.9333 210.34 60.1484C210.693 60.3634 211.17 60.4709 211.774 60.4709C212.264 60.4709 212.664 60.3634 212.975 60.1484C213.291 59.9273 213.45 59.6764 213.45 59.3957C213.45 58.9656 213.285 58.6519 212.957 58.4548C212.634 58.2577 212.099 58.0695 211.353 57.8903C210.511 57.6812 209.823 57.4632 209.292 57.2362C208.766 57.0032 208.345 56.6985 208.028 56.3222C207.712 55.9459 207.553 55.4829 207.553 54.9333C207.553 54.4435 207.7 53.9805 207.993 53.5445C208.285 53.1084 208.715 52.7619 209.283 52.5051C209.856 52.2422 210.546 52.1108 211.353 52.1108C211.986 52.1108 212.553 52.1765 213.055 52.3079C213.563 52.4393 213.984 52.6156 214.319 52.8366C214.659 53.0576 214.916 53.3025 215.089 53.5713C215.269 53.8402 215.358 54.103 215.358 54.3599C215.358 54.6406 215.262 54.8706 215.072 55.0498C214.886 55.229 214.62 55.3186 214.274 55.3186C214.023 55.3186 213.808 55.247 213.629 55.1036C213.456 54.9602 213.255 54.7452 213.028 54.4584C212.843 54.2195 212.625 54.0283 212.374 53.8849C212.123 53.7416 211.783 53.6699 211.353 53.6699C210.911 53.6699 210.543 53.7655 210.251 53.9566C209.958 54.1418 209.812 54.3748 209.812 54.6555C209.812 54.9124 209.919 55.1245 210.134 55.2917C210.349 55.4531 210.639 55.5875 211.003 55.695C211.368 55.8025 211.87 55.9339 212.509 56.0892C213.267 56.2744 213.886 56.4955 214.364 56.7523C214.847 57.0092 215.212 57.3139 215.457 57.6663C215.708 58.0128 215.833 58.41 215.833 58.858Z" fill="white"/>
<path d="M128.646 12.7927H120.631V39.5859C120.631 41.129 120.292 42.2779 119.616 43.0326C118.94 43.7706 118.066 44.1395 116.994 44.1395C115.905 44.1395 115.015 43.7622 114.322 43.0074C113.646 42.2527 113.308 41.1122 113.308 39.5859V12.7927H105.292C104.039 12.7927 103.107 12.5159 102.497 11.9625C101.887 11.3922 101.581 10.6458 101.581 9.72339C101.581 8.76738 101.895 8.01264 102.522 7.45917C103.165 6.90569 104.088 6.62895 105.292 6.62895H128.646C129.916 6.62895 130.856 6.91408 131.466 7.48432C132.093 8.05457 132.406 8.80093 132.406 9.72339C132.406 10.6458 132.093 11.3922 131.466 11.9625C130.84 12.5159 129.9 12.7927 128.646 12.7927ZM151.926 31.8624H138.715C138.731 33.4222 139.037 34.7976 139.63 35.9884C140.241 37.1791 141.04 38.0765 142.03 38.6803C143.036 39.2841 144.141 39.5859 145.345 39.5859C146.153 39.5859 146.887 39.4937 147.547 39.3092C148.223 39.108 148.874 38.806 149.501 38.4035C150.128 37.9842 150.705 37.5398 151.233 37.0701C151.761 36.6005 152.445 35.9632 153.286 35.1582C153.633 34.8562 154.127 34.7053 154.771 34.7053C155.463 34.7053 156.024 34.8982 156.453 35.2839C156.882 35.6697 157.096 36.2148 157.096 36.9192C157.096 37.5398 156.857 38.2693 156.379 39.108C155.9 39.9298 155.175 40.7264 154.202 41.498C153.245 42.2527 152.033 42.8817 150.565 43.3848C149.114 43.888 147.44 44.1395 145.543 44.1395C141.205 44.1395 137.833 42.8817 135.425 40.3658C133.017 37.85 131.813 34.4369 131.813 30.1265C131.813 28.0971 132.11 26.2186 132.703 24.4911C133.297 22.7469 134.163 21.2541 135.301 20.013C136.439 18.7719 137.841 17.8242 139.507 17.1702C141.172 16.4993 143.02 16.1638 145.048 16.1638C147.687 16.1638 149.946 16.7341 151.827 17.8746C153.723 18.9983 155.142 20.4574 156.082 22.2521C157.022 24.0467 157.492 25.8748 157.492 27.7365C157.492 29.4641 157.005 30.5878 156.032 31.1077C155.059 31.6109 153.69 31.8624 151.926 31.8624ZM138.715 27.9629H150.961C150.796 25.6148 150.169 23.8622 149.081 22.7049C148.009 21.5309 146.59 20.9439 144.825 20.9439C143.143 20.9439 141.758 21.5393 140.669 22.7301C139.597 23.9041 138.946 25.6484 138.715 27.9629ZM163.207 39.9633V10.1762C163.207 8.80093 163.503 7.76106 164.097 7.05664C164.708 6.35221 165.524 6 166.546 6C167.569 6 168.394 6.35221 169.02 7.05664C169.647 7.74429 169.961 8.78415 169.961 10.1762V39.9633C169.961 41.3554 169.639 42.4036 168.996 43.1081C168.369 43.7957 167.553 44.1395 166.546 44.1395C165.557 44.1395 164.749 43.779 164.122 43.0578C163.512 42.3365 163.207 41.3051 163.207 39.9633ZM176.961 39.9633V10.1762C176.961 8.80093 177.259 7.76106 177.852 7.05664C178.462 6.35221 179.279 6 180.301 6C181.324 6 182.149 6.35221 182.776 7.05664C183.402 7.74429 183.715 8.78415 183.715 10.1762V39.9633C183.715 41.3554 183.394 42.4036 182.751 43.1081C182.124 43.7957 181.307 44.1395 180.301 44.1395C179.312 44.1395 178.504 43.779 177.877 43.0578C177.267 42.3365 176.961 41.3051 176.961 39.9633ZM216 30.1769C216 32.223 215.686 34.1099 215.06 35.8374C214.433 37.5649 213.526 39.0492 212.339 40.2904C211.151 41.5315 209.733 42.4875 208.084 43.1584C206.434 43.8125 204.579 44.1395 202.517 44.1395C200.472 44.1395 198.633 43.8041 197 43.1332C195.368 42.4623 193.949 41.5063 192.745 40.2652C191.558 39.0073 190.651 37.5314 190.024 35.8374C189.414 34.1267 189.109 32.2398 189.109 30.1769C189.109 28.0971 189.422 26.1935 190.048 24.466C190.676 22.7385 191.574 21.2625 192.745 20.0382C193.916 18.8138 195.335 17.8746 197 17.2204C198.666 16.5496 200.505 16.2141 202.517 16.2141C204.562 16.2141 206.418 16.5496 208.084 17.2204C209.75 17.8913 211.176 18.8473 212.363 20.0885C213.551 21.3296 214.45 22.8055 215.06 24.5163C215.686 26.2271 216 28.1139 216 30.1769ZM209.222 30.1769C209.222 27.3759 208.611 25.1956 207.391 23.6358C206.187 22.076 204.562 21.2961 202.517 21.2961C201.198 21.2961 200.035 21.6483 199.029 22.3527C198.023 23.0404 197.248 24.0635 196.704 25.422C196.159 26.7805 195.887 28.3655 195.887 30.1769C195.887 31.9715 196.151 33.5396 196.679 34.8814C197.223 36.2232 197.99 37.2547 198.98 37.9758C199.986 38.6803 201.165 39.0325 202.517 39.0325C204.562 39.0325 206.187 38.2526 207.391 36.6928C208.611 35.1162 209.222 32.9443 209.222 30.1769Z" fill="white"/>
<path d="M122.883 90.4062C122.883 92.138 122.434 93.694 121.535 95.0742C120.65 96.4544 119.348 97.5352 117.629 98.3164C115.91 99.0977 113.872 99.4883 111.516 99.4883C108.69 99.4883 106.359 98.9544 104.523 97.8867C103.221 97.1185 102.16 96.0964 101.34 94.8203C100.533 93.5312 100.129 92.2812 100.129 91.0703C100.129 90.3672 100.37 89.7682 100.852 89.2734C101.346 88.7656 101.971 88.5117 102.727 88.5117C103.339 88.5117 103.853 88.707 104.27 89.0977C104.699 89.4883 105.064 90.0677 105.363 90.8359C105.728 91.7474 106.118 92.5091 106.535 93.1211C106.965 93.7331 107.564 94.2409 108.332 94.6445C109.1 95.0352 110.109 95.2305 111.359 95.2305C113.078 95.2305 114.471 94.8333 115.539 94.0391C116.62 93.2318 117.16 92.2292 117.16 91.0312C117.16 90.0807 116.867 89.3125 116.281 88.7266C115.708 88.1276 114.96 87.6719 114.035 87.3594C113.124 87.0469 111.9 86.7148 110.363 86.3633C108.306 85.8815 106.581 85.3216 105.188 84.6836C103.807 84.0326 102.707 83.1536 101.887 82.0469C101.079 80.9271 100.676 79.5404 100.676 77.8867C100.676 76.3112 101.105 74.9115 101.965 73.6875C102.824 72.4635 104.068 71.526 105.695 70.875C107.323 70.2109 109.237 69.8789 111.438 69.8789C113.195 69.8789 114.712 70.1003 115.988 70.543C117.277 70.9727 118.345 71.5521 119.191 72.2812C120.038 72.9974 120.656 73.7526 121.047 74.5469C121.438 75.3411 121.633 76.1159 121.633 76.8711C121.633 77.5612 121.385 78.1862 120.891 78.7461C120.409 79.293 119.803 79.5664 119.074 79.5664C118.41 79.5664 117.902 79.4036 117.551 79.0781C117.212 78.7396 116.841 78.1927 116.438 77.4375C115.917 76.3568 115.292 75.5169 114.562 74.918C113.833 74.306 112.661 74 111.047 74C109.549 74 108.339 74.332 107.414 74.9961C106.503 75.6471 106.047 76.4349 106.047 77.3594C106.047 77.9323 106.203 78.4271 106.516 78.8438C106.828 79.2604 107.258 79.6185 107.805 79.918C108.352 80.2174 108.905 80.4518 109.465 80.6211C110.025 80.7904 110.949 81.0378 112.238 81.3633C113.853 81.7409 115.311 82.1576 116.613 82.6133C117.928 83.069 119.042 83.6224 119.953 84.2734C120.878 84.9245 121.594 85.7513 122.102 86.7539C122.622 87.7435 122.883 88.9609 122.883 90.4062Z" fill="white"/>
<path d="M147.395 88.6484C147.395 90.237 147.147 91.7018 146.652 93.043C146.158 94.3841 145.441 95.5365 144.504 96.5C143.566 97.4635 142.447 98.2057 141.145 98.7266C139.842 99.2344 138.378 99.4883 136.75 99.4883C135.135 99.4883 133.684 99.2279 132.395 98.707C131.105 98.1862 129.986 97.444 129.035 96.4805C128.098 95.5039 127.382 94.3581 126.887 93.043C126.405 91.7148 126.164 90.25 126.164 88.6484C126.164 87.0339 126.411 85.556 126.906 84.2148C127.401 82.8737 128.111 81.7279 129.035 80.7773C129.96 79.8268 131.079 79.0977 132.395 78.5898C133.71 78.069 135.161 77.8086 136.75 77.8086C138.365 77.8086 139.829 78.069 141.145 78.5898C142.46 79.1107 143.586 79.8529 144.523 80.8164C145.461 81.7799 146.171 82.9258 146.652 84.2539C147.147 85.582 147.395 87.0469 147.395 88.6484ZM142.043 88.6484C142.043 86.474 141.561 84.7812 140.598 83.5703C139.647 82.3594 138.365 81.7539 136.75 81.7539C135.708 81.7539 134.79 82.0273 133.996 82.5742C133.202 83.1081 132.59 83.9023 132.16 84.957C131.73 86.0117 131.516 87.2422 131.516 88.6484C131.516 90.0417 131.724 91.2591 132.141 92.3008C132.57 93.3424 133.176 94.1432 133.957 94.7031C134.751 95.25 135.682 95.5234 136.75 95.5234C138.365 95.5234 139.647 94.918 140.598 93.707C141.561 92.4831 142.043 90.7969 142.043 88.6484Z" fill="white"/>
<path d="M170.734 92.8867C170.734 93.5508 170.533 94.2604 170.129 95.0156C169.738 95.7708 169.133 96.4935 168.312 97.1836C167.505 97.8607 166.483 98.4076 165.246 98.8242C164.009 99.2409 162.616 99.4492 161.066 99.4492C157.772 99.4492 155.201 98.4922 153.352 96.5781C151.503 94.651 150.578 92.0729 150.578 88.8438C150.578 86.6562 151.001 84.7227 151.848 83.043C152.694 81.3633 153.918 80.0677 155.52 79.1562C157.121 78.2318 159.035 77.7695 161.262 77.7695C162.642 77.7695 163.905 77.9714 165.051 78.375C166.21 78.7786 167.186 79.2995 167.98 79.9375C168.788 80.5755 169.4 81.2591 169.816 81.9883C170.246 82.7044 170.461 83.375 170.461 84C170.461 84.638 170.22 85.1784 169.738 85.6211C169.27 86.0638 168.697 86.2852 168.02 86.2852C167.577 86.2852 167.206 86.1745 166.906 85.9531C166.62 85.7188 166.294 85.3477 165.93 84.8398C165.279 83.8503 164.595 83.1081 163.879 82.6133C163.176 82.1185 162.277 81.8711 161.184 81.8711C159.608 81.8711 158.339 82.4896 157.375 83.7266C156.411 84.9505 155.93 86.6302 155.93 88.7656C155.93 89.7682 156.053 90.6927 156.301 91.5391C156.548 92.3724 156.906 93.0885 157.375 93.6875C157.844 94.2734 158.41 94.7227 159.074 95.0352C159.738 95.3346 160.467 95.4844 161.262 95.4844C162.329 95.4844 163.241 95.237 163.996 94.7422C164.764 94.2474 165.441 93.4922 166.027 92.4766C166.353 91.8776 166.704 91.4089 167.082 91.0703C167.46 90.7318 167.922 90.5625 168.469 90.5625C169.12 90.5625 169.66 90.8099 170.09 91.3047C170.52 91.7995 170.734 92.3268 170.734 92.8867Z" fill="white"/>
<path d="M180.734 80.8359V96.2461C180.734 97.3138 180.48 98.1211 179.973 98.668C179.465 99.2148 178.82 99.4883 178.039 99.4883C177.258 99.4883 176.62 99.2083 176.125 98.6484C175.643 98.0885 175.402 97.2878 175.402 96.2461V80.9922C175.402 79.9375 175.643 79.1432 176.125 78.6094C176.62 78.0755 177.258 77.8086 178.039 77.8086C178.82 77.8086 179.465 78.0755 179.973 78.6094C180.48 79.1432 180.734 79.8854 180.734 80.8359ZM178.098 75.3281C177.355 75.3281 176.717 75.1003 176.184 74.6445C175.663 74.1888 175.402 73.5443 175.402 72.7109C175.402 71.9557 175.669 71.3372 176.203 70.8555C176.75 70.3607 177.382 70.1133 178.098 70.1133C178.788 70.1133 179.4 70.3346 179.934 70.7773C180.467 71.2201 180.734 71.8646 180.734 72.7109C180.734 73.5312 180.474 74.1758 179.953 74.6445C179.432 75.1003 178.814 75.3281 178.098 75.3281Z" fill="white"/>
<path d="M199.738 96.4805C198.449 97.4831 197.199 98.2383 195.988 98.7461C194.79 99.2409 193.443 99.4883 191.945 99.4883C190.578 99.4883 189.374 99.2214 188.332 98.6875C187.303 98.1406 186.509 97.4049 185.949 96.4805C185.389 95.556 185.109 94.5534 185.109 93.4727C185.109 92.0143 185.572 90.7708 186.496 89.7422C187.421 88.7135 188.69 88.0234 190.305 87.6719C190.643 87.5938 191.483 87.418 192.824 87.1445C194.165 86.8711 195.311 86.6237 196.262 86.4023C197.225 86.168 198.267 85.888 199.387 85.5625C199.322 84.1562 199.035 83.1276 198.527 82.4766C198.033 81.8125 196.997 81.4805 195.422 81.4805C194.068 81.4805 193.046 81.6693 192.355 82.0469C191.678 82.4245 191.092 82.9909 190.598 83.7461C190.116 84.5013 189.771 85.0026 189.562 85.25C189.367 85.4844 188.938 85.6016 188.273 85.6016C187.674 85.6016 187.154 85.4128 186.711 85.0352C186.281 84.6445 186.066 84.1497 186.066 83.5508C186.066 82.6133 186.398 81.7018 187.062 80.8164C187.727 79.931 188.762 79.2018 190.168 78.6289C191.574 78.056 193.326 77.7695 195.422 77.7695C197.766 77.7695 199.608 78.0495 200.949 78.6094C202.29 79.1562 203.234 80.0286 203.781 81.2266C204.341 82.4245 204.621 84.013 204.621 85.9922C204.621 87.2422 204.615 88.3034 204.602 89.1758C204.602 90.0482 204.595 91.0182 204.582 92.0859C204.582 93.0885 204.745 94.1367 205.07 95.2305C205.409 96.3112 205.578 97.0078 205.578 97.3203C205.578 97.8672 205.318 98.3685 204.797 98.8242C204.289 99.2669 203.71 99.4883 203.059 99.4883C202.512 99.4883 201.971 99.2344 201.438 98.7266C200.904 98.2057 200.337 97.457 199.738 96.4805ZM199.387 88.7656C198.605 89.0521 197.466 89.3581 195.969 89.6836C194.484 89.9961 193.456 90.2305 192.883 90.3867C192.31 90.5299 191.763 90.8229 191.242 91.2656C190.721 91.6953 190.461 92.3008 190.461 93.082C190.461 93.8893 190.767 94.5794 191.379 95.1523C191.991 95.7122 192.792 95.9922 193.781 95.9922C194.836 95.9922 195.806 95.7643 196.691 95.3086C197.59 94.8398 198.247 94.2409 198.664 93.5117C199.146 92.7044 199.387 91.3763 199.387 89.5273V88.7656Z" fill="white"/>
<path d="M210.051 96.2461V73.1211C210.051 72.0534 210.285 71.2461 210.754 70.6992C211.236 70.1523 211.88 69.8789 212.688 69.8789C213.495 69.8789 214.146 70.1523 214.641 70.6992C215.135 71.2331 215.383 72.0404 215.383 73.1211V96.2461C215.383 97.3268 215.129 98.1406 214.621 98.6875C214.126 99.2214 213.482 99.4883 212.688 99.4883C211.906 99.4883 211.268 99.2083 210.773 98.6484C210.292 98.0885 210.051 97.2878 210.051 96.2461Z" fill="white"/>
</svg>
