<svg width="30" height="29" viewBox="0 0 30 29" fill="none" xmlns="http://www.w3.org/2000/svg">
<path d="M0 3.75C0 2.75544 0.395088 1.80161 1.09835 1.09835C1.80161 0.395088 2.75544 0 3.75 0L26.25 0C27.2446 0 28.1984 0.395088 28.9016 1.09835C29.6049 1.80161 30 2.75544 30 3.75V18.75C30 19.7446 29.6049 20.6984 28.9016 21.4017C28.1984 22.1049 27.2446 22.5 26.25 22.5H21.5625C21.2714 22.5 20.9843 22.5678 20.724 22.698C20.4636 22.8281 20.2372 23.0171 20.0625 23.25L16.5 27.9994C16.3253 28.2322 16.0989 28.4213 15.8385 28.5514C15.5782 28.6816 15.2911 28.7494 15 28.7494C14.7089 28.7494 14.4218 28.6816 14.1615 28.5514C13.9011 28.4213 13.6747 28.2322 13.5 27.9994L9.9375 23.25C9.76285 23.0171 9.53638 22.8281 9.27603 22.698C9.01567 22.5678 8.72858 22.5 8.4375 22.5H3.75C2.75544 22.5 1.80161 22.1049 1.09835 21.4017C0.395088 20.6984 0 19.7446 0 18.75V3.75ZM9.375 11.25C9.375 10.7527 9.17746 10.2758 8.82582 9.92418C8.47419 9.57255 7.99728 9.375 7.5 9.375C7.00272 9.375 6.52581 9.57255 6.17417 9.92418C5.82254 10.2758 5.625 10.7527 5.625 11.25C5.625 11.7473 5.82254 12.2242 6.17417 12.5758C6.52581 12.9275 7.00272 13.125 7.5 13.125C7.99728 13.125 8.47419 12.9275 8.82582 12.5758C9.17746 12.2242 9.375 11.7473 9.375 11.25ZM16.875 11.25C16.875 10.7527 16.6775 10.2758 16.3258 9.92418C15.9742 9.57255 15.4973 9.375 15 9.375C14.5027 9.375 14.0258 9.57255 13.6742 9.92418C13.3225 10.2758 13.125 10.7527 13.125 11.25C13.125 11.7473 13.3225 12.2242 13.6742 12.5758C14.0258 12.9275 14.5027 13.125 15 13.125C15.4973 13.125 15.9742 12.9275 16.3258 12.5758C16.6775 12.2242 16.875 11.7473 16.875 11.25ZM22.5 13.125C22.9973 13.125 23.4742 12.9275 23.8258 12.5758C24.1775 12.2242 24.375 11.7473 24.375 11.25C24.375 10.7527 24.1775 10.2758 23.8258 9.92418C23.4742 9.57255 22.9973 9.375 22.5 9.375C22.0027 9.375 21.5258 9.57255 21.1742 9.92418C20.8225 10.2758 20.625 10.7527 20.625 11.25C20.625 11.7473 20.8225 12.2242 21.1742 12.5758C21.5258 12.9275 22.0027 13.125 22.5 13.125Z" fill="#9EA9B2"/>
</svg>
