<svg width="30" height="31" viewBox="0 0 30 31" fill="none" xmlns="http://www.w3.org/2000/svg">
<path d="M17.8143 30.9208H12.1867C11.8341 30.9208 11.4921 30.8004 11.2173 30.5793C10.9426 30.3583 10.7517 30.05 10.6762 29.7056L10.047 26.7929C9.20756 26.4251 8.41162 25.9651 7.6738 25.4215L4.83372 26.3259C4.49756 26.4332 4.13484 26.4221 3.80579 26.2947C3.47675 26.1673 3.20118 25.9312 3.02486 25.6256L0.204883 20.754C0.030405 20.4481 -0.0350896 20.0921 0.0191143 19.7441C0.0733183 19.3961 0.244011 19.0768 0.503268 18.8385L2.70637 16.8286C2.60619 15.9182 2.60619 14.9995 2.70637 14.0891L0.503268 12.0838C0.243644 11.8454 0.0727189 11.5258 0.0185061 11.1775C-0.0357066 10.8292 0.0300092 10.4728 0.204883 10.1668L3.01867 5.29209C3.195 4.98646 3.47057 4.75034 3.79961 4.62295C4.12865 4.49555 4.49137 4.48453 4.82754 4.59173L7.66761 5.49617C8.04485 5.21788 8.43754 4.95815 8.8426 4.72315C9.23375 4.50361 9.63572 4.30417 10.047 4.12638L10.6778 1.21673C10.7528 0.872272 10.9434 0.563821 11.2179 0.342523C11.4923 0.121225 11.8341 0.000370997 12.1867 0H17.8143C18.1668 0.000370997 18.5087 0.121225 18.7831 0.342523C19.0575 0.563821 19.2481 0.872272 19.3232 1.21673L19.9602 4.12792C20.7985 4.49784 21.5942 4.95764 22.3333 5.49926L25.175 4.59483C25.5109 4.48802 25.8733 4.49924 26.202 4.62662C26.5307 4.75399 26.806 4.98989 26.9823 5.29518L29.7961 10.1698C30.1547 10.7991 30.0311 11.5953 29.4977 12.0854L27.2946 14.0952C27.3948 15.0057 27.3948 15.9244 27.2946 16.8348L29.4977 18.8447C30.0311 19.3363 30.1547 20.131 29.7961 20.7602L26.9823 25.6349C26.8059 25.9405 26.5304 26.1766 26.2013 26.304C25.8723 26.4314 25.5096 26.4424 25.1734 26.3352L22.3333 25.4308C21.5961 25.974 20.8006 26.4334 19.9617 26.8006L19.3232 29.7056C19.2478 30.0498 19.0571 30.3579 18.7827 30.5789C18.5083 30.7999 18.1666 30.9205 17.8143 30.9208ZM14.9943 9.27623C13.3542 9.27623 11.7812 9.92778 10.6214 11.0875C9.46168 12.2473 8.81013 13.8202 8.81013 15.4604C8.81013 17.1005 9.46168 18.6735 10.6214 19.8332C11.7812 20.993 13.3542 21.6445 14.9943 21.6445C16.6344 21.6445 18.2074 20.993 19.3671 19.8332C20.5269 18.6735 21.1784 17.1005 21.1784 15.4604C21.1784 13.8202 20.5269 12.2473 19.3671 11.0875C18.2074 9.92778 16.6344 9.27623 14.9943 9.27623Z" fill="#9EA9B2"/>
</svg>
