<svg width="30" height="30" viewBox="0 0 30 30" fill="none" xmlns="http://www.w3.org/2000/svg">
<path d="M11.3585 0L11.1773 0.938077L10.4919 4.36269C9.41061 4.79652 8.40172 5.39259 7.5 6.13038L4.14692 4.97654L3.24462 4.68808L2.77615 5.51654L0.468461 9.48346L0 10.3131L0.685384 10.9246L3.28154 13.1977C3.18462 13.7862 3.06462 14.3769 3.06462 15C3.06462 15.6231 3.18577 16.2115 3.28154 16.8035L0.685384 19.0742L0 19.6881L0.468461 20.5165L2.77615 24.4835L3.24462 25.3119L4.14692 25.0235L7.5 23.8696C8.40208 24.6075 9.41136 25.2036 10.4931 25.6373L11.1773 29.0619L11.3573 30H17.8488L18.0288 29.0619L18.7131 25.6373C19.7948 25.2036 20.8041 24.6075 21.7062 23.8696L25.0604 25.0235L25.9604 25.3119L26.43 24.4835L28.7377 20.5165L29.2062 19.6881L28.5219 19.0742L25.9258 16.8035C26.0204 16.2115 26.1415 15.6208 26.1415 15C26.1415 14.3769 26.0204 13.7885 25.9246 13.1965L28.5208 10.9258L29.2062 10.3131L28.7377 9.48231L26.43 5.51654L25.9615 4.68808L25.0592 4.97654L21.7062 6.13038C20.8044 5.39259 19.7955 4.79652 18.7142 4.36269L18.0288 0.938077L17.8477 0H11.3585ZM13.2323 2.30769H15.9738L16.5508 5.30077L16.695 5.985L17.3435 6.20192C18.6437 6.60921 19.8379 7.29872 20.8408 8.22115L21.3462 8.68962L21.9946 8.47385L24.9162 7.46423L26.2858 9.80769L23.9781 11.8627L23.4369 12.2954L23.6181 12.9808C23.7658 13.6385 23.8338 14.31 23.8338 15C23.8338 15.69 23.7658 16.3615 23.6169 17.0192L23.4727 17.7046L23.9781 18.1373L26.2858 20.1923L24.915 22.5358L21.9958 21.5262L21.3462 21.3104L20.8408 21.7788C19.8379 22.7013 18.6437 23.3908 17.3435 23.7981L16.6938 24.015L16.5496 24.6992L15.9727 27.6923H13.2323L12.6554 24.6992L12.5123 24.015L11.8627 23.7981C10.5624 23.3908 9.36821 22.7013 8.36538 21.7788L7.86 21.3104L7.21154 21.5262L4.29115 22.5358L2.92038 20.1923L5.22808 18.1373L5.76923 17.7046L5.58923 17.0192C5.44195 16.3563 5.36919 15.6791 5.37231 15C5.37231 14.31 5.44038 13.6385 5.58923 12.9808L5.76923 12.2954L5.22808 11.8627L2.92038 9.80769L4.29115 7.46423L7.21038 8.47385L7.86 8.68962L8.36538 8.22115C9.36821 7.29872 10.5624 6.60921 11.8627 6.20192L12.5123 5.985L12.6554 5.30077L13.2323 2.30769ZM14.6031 9.23077C11.43 9.23077 8.83385 11.8269 8.83385 15C8.83385 18.1731 11.43 20.7692 14.6031 20.7692C17.7762 20.7692 20.3723 18.1731 20.3723 15C20.3723 11.8269 17.7762 9.23077 14.6031 9.23077ZM14.6031 11.5385C16.5277 11.5385 18.0646 13.0754 18.0646 15C18.0646 16.9246 16.5277 18.4615 14.6031 18.4615C12.6785 18.4615 11.1415 16.9246 11.1415 15C11.1415 13.0754 12.6785 11.5385 14.6031 11.5385Z" fill="#9EA9B2"/>
</svg>
