<svg width="42" height="42" viewBox="0 0 42 42" fill="none" xmlns="http://www.w3.org/2000/svg">
<path d="M40.3836 16.1541H37.1528C37.1494 13.1561 35.9569 10.2819 33.837 8.16201C31.7172 6.04211 28.8429 4.84966 25.845 4.84623V1.61542C29.6995 1.6197 33.395 3.15282 36.1206 5.87842C38.8462 8.60402 40.3794 12.2995 40.3836 16.1541ZM27.9983 29.856L31.6168 26.2375C32.1012 25.753 32.717 25.4213 33.3881 25.2834C34.0592 25.1456 34.7559 25.2077 35.392 25.4621L39.7989 27.2261C40.4484 27.486 41.0051 27.9345 41.3973 28.5138C41.7895 29.0932 41.9991 29.7767 41.999 30.4763V38.4903C42.0002 38.9666 41.9041 39.4382 41.7167 39.8761C41.5292 40.314 41.2544 40.709 40.909 41.037C40.5636 41.365 40.1549 41.6191 39.7079 41.7837C39.261 41.9482 38.7851 42.0199 38.3094 41.9941C7.41963 40.0718 1.18093 13.9087 0.0226838 3.88991C-0.0334134 3.40012 0.0148213 2.90399 0.164216 2.43417C0.31361 1.96435 0.560779 1.53148 0.889465 1.16404C1.21815 0.796594 1.6209 0.5029 2.07124 0.302274C2.52157 0.101648 3.00927 -0.0013641 3.50227 1.36396e-05H11.3741C12.0737 -8.82433e-06 12.7573 0.209583 13.3366 0.601752C13.9159 0.993921 14.3645 1.55068 14.6243 2.2002L16.3868 6.60703C16.6411 7.24313 16.7032 7.93989 16.5654 8.61095C16.4275 9.28201 16.0958 9.89788 15.6114 10.3822L11.9929 14.0007C11.9929 14.0007 13.9992 28.1065 27.9983 29.856Z" fill="#6BAE33"/>
</svg>
