<svg width="22" height="22" viewBox="0 0 22 22" fill="none" xmlns="http://www.w3.org/2000/svg">
<path d="M12.7155 9.28453C11.8054 8.37482 10.5713 7.86378 9.2845 7.86378C7.99771 7.86378 6.76359 8.37482 5.8535 9.28453L2.4214 12.7155C1.51129 13.6256 1 14.86 1 16.1471C1 17.4342 1.51129 18.6685 2.4214 19.5786C3.3315 20.4887 4.56587 21 5.85295 21C7.14003 21 8.3744 20.4887 9.2845 19.5786L11 17.8631" stroke="white" stroke-width="2" stroke-linecap="round" stroke-linejoin="round"/>
<path d="M9.28442 12.7155C10.1945 13.6252 11.4286 14.1362 12.7154 14.1362C14.0022 14.1362 15.2363 13.6252 16.1464 12.7155L19.5785 9.2845C20.4886 8.3744 20.9999 7.14003 20.9999 5.85295C20.9999 4.56587 20.4886 3.3315 19.5785 2.4214C18.6684 1.51129 17.4341 1 16.147 1C14.8599 1 13.6255 1.51129 12.7154 2.4214L10.9999 4.13689" stroke="white" stroke-width="2" stroke-linecap="round" stroke-linejoin="round"/>
</svg>
