<svg width="33" height="33" viewBox="0 0 33 33" fill="none" xmlns="http://www.w3.org/2000/svg">
<path d="M16.5 2.53066e-05C13.7797 -0.00474063 11.1006 0.663733 8.70145 1.94584C6.3023 3.22795 4.25771 5.08384 2.75 7.34802V2.75002H0V12.375H9.62499V9.62502H4.64062C7.01524 5.52752 11.4084 2.75002 16.5 2.75002C24.1106 2.75002 30.25 8.88939 30.25 16.5C30.25 24.1106 24.1106 30.25 16.5 30.25C8.88937 30.25 2.75 24.1106 2.75 16.5H0C0 25.5984 7.40162 33 16.5 33C25.5984 33 33 25.5984 33 16.5C33 7.40164 25.5984 2.53066e-05 16.5 2.53066e-05ZM15.125 5.50002V17.875H24.75V15.125H17.875V5.50002H15.125Z" fill="#9EA9B2"/>
</svg>
