<svg width="12" height="14" viewBox="0 0 12 14" fill="none" xmlns="http://www.w3.org/2000/svg">
<path d="M10.8517 0.00136248C10.5471 0.00136248 10.255 0.124267 10.0397 0.343038C9.82433 0.561809 9.70335 0.858526 9.70335 1.16792V5.62415L9.54258 5.44916L3.68613 0.537977C3.33355 0.250998 2.90871 0.0704059 2.46002 0.0167808C2.01133 -0.0368444 1.55683 0.0386539 1.14833 0.234673C0.804032 0.402122 0.513455 0.665199 0.310232 0.993453C0.107009 1.32171 -0.000550577 1.70171 2.11934e-06 2.08949V11.9119C-0.000550577 12.2996 0.107009 12.6797 0.310232 13.0079C0.513455 13.3362 0.804032 13.5992 1.14833 13.7667C1.4766 13.9183 1.83269 13.9978 2.1933 14C2.73682 14.0007 3.26398 13.8112 3.68613 13.4634L9.54258 8.5522L9.70335 8.37721V12.8334C9.70335 13.1428 9.82433 13.4396 10.0397 13.6583C10.255 13.8771 10.5471 14 10.8517 14C11.1562 14 11.4483 13.8771 11.6637 13.6583C11.879 13.4396 12 13.1428 12 12.8334V1.16792C12 0.858526 11.879 0.561809 11.6637 0.343038C11.4483 0.124267 11.1562 0.00136248 10.8517 0.00136248ZM2.23924 11.5619V2.33447L7.77416 7.00068L2.23924 11.5619Z" fill="white"/>
</svg>
