<svg width="80" height="64" viewBox="0 0 80 64" fill="none" xmlns="http://www.w3.org/2000/svg">
<path fill-rule="evenodd" clip-rule="evenodd" d="M70.2372 24.7796C69.2662 27.0245 67.843 29.0642 66.0488 30.7824C63.1837 32.1203 61.763 29.9435 63.2359 28.0887C64.6607 26.7243 65.7909 25.1045 66.562 23.3218C67.3331 21.5391 67.73 19.6284 67.73 17.6988C67.73 15.7692 67.3331 13.8586 66.562 12.0759C65.7909 10.2932 64.6607 8.67335 63.2359 7.30893C62.3313 5.45424 63.752 3.82161 66.0488 4.61524C67.843 6.3334 69.2662 8.37315 70.2372 10.618C71.2082 12.8629 71.708 15.269 71.708 17.6988C71.708 20.1287 71.2082 22.5347 70.2372 24.7796Z" fill="white"/>
<path fill-rule="evenodd" clip-rule="evenodd" d="M62.5045 23.1529C61.8489 24.6686 60.888 26.0458 59.6766 27.2059C57.7421 28.1092 56.7829 26.6395 57.7774 25.3872C58.7394 24.466 59.5025 23.3723 60.0231 22.1687C60.5437 20.965 60.8117 19.675 60.8117 18.3721C60.8117 17.0693 60.5437 15.7793 60.0231 14.5756C59.5025 13.372 58.7394 12.2783 57.7774 11.3571C57.1666 10.1048 58.1258 9.00253 59.6766 9.53837C60.888 10.6984 61.8489 12.0756 62.5045 13.5913C63.1601 15.107 63.4976 16.7316 63.4976 18.3721C63.4976 20.0127 63.1601 21.6372 62.5045 23.1529Z" fill="white"/>
<path fill-rule="evenodd" clip-rule="evenodd" d="M78.2198 27.1052C77.0444 30.0984 75.3215 32.8181 73.1496 35.1089C70.4379 36.1192 68.6549 33.9904 70.4379 31.5174C72.1627 29.6982 73.5308 27.5384 74.4643 25.1615C75.3977 22.7845 75.8781 20.237 75.8781 17.6642C75.8781 15.0914 75.3977 12.5438 74.4643 10.1669C73.5308 7.78996 72.1627 5.63022 70.4379 3.81099C68.9885 1.68439 70.0286 -0.750398 73.1496 0.2194C75.3215 2.51028 77.0444 5.22995 78.2198 8.22313C79.3953 11.2163 80.0002 14.4244 80.0002 17.6642C80.0002 20.904 79.3953 24.112 78.2198 27.1052Z" fill="white"/>
<path fill-rule="evenodd" clip-rule="evenodd" d="M9.76277 24.7796C10.7338 27.0245 12.157 29.0642 13.9512 30.7824C16.8163 32.1203 18.237 29.9435 16.7641 28.0887C15.3393 26.7243 14.2091 25.1045 13.438 23.3218C12.6669 21.5391 12.27 19.6284 12.27 17.6988C12.27 15.7692 12.6669 13.8586 13.438 12.0759C14.2091 10.2932 15.3393 8.67335 16.7641 7.30893C17.6687 5.45424 16.248 3.82161 13.9512 4.61524C12.157 6.3334 10.7338 8.37315 9.76277 10.618C8.79176 12.8629 8.29199 15.269 8.29199 17.6988C8.29199 20.1287 8.79176 22.5347 9.76277 24.7796Z" fill="white"/>
<path fill-rule="evenodd" clip-rule="evenodd" d="M17.4955 23.1529C18.1511 24.6686 19.112 26.0458 20.3234 27.2059C22.2579 28.1092 23.2171 26.6395 22.2226 25.3872C21.2606 24.466 20.4975 23.3723 19.9769 22.1687C19.4563 20.965 19.1883 19.675 19.1883 18.3721C19.1883 17.0693 19.4563 15.7793 19.9769 14.5756C20.4975 13.372 21.2606 12.2783 22.2226 11.3571C22.8334 10.1048 21.8742 9.00253 20.3234 9.53837C19.112 10.6984 18.1511 12.0756 17.4955 13.5913C16.8399 15.107 16.5024 16.7316 16.5024 18.3721C16.5024 20.0127 16.8399 21.6372 17.4955 23.1529Z" fill="white"/>
<path fill-rule="evenodd" clip-rule="evenodd" d="M1.78017 27.1052C2.9556 30.0984 4.67845 32.8181 6.85036 35.1089C9.56206 36.1192 11.3451 33.9904 9.56206 31.5174C7.83731 29.6982 6.46916 27.5384 5.53573 25.1615C4.6023 22.7845 4.12187 20.237 4.12188 17.6642C4.12188 15.0914 4.6023 12.5438 5.53573 10.1669C6.46916 7.78996 7.83731 5.63022 9.56206 3.81099C11.0115 1.68439 9.97143 -0.750398 6.85036 0.2194C4.67845 2.51028 2.9556 5.22995 1.78017 8.22313C0.604742 11.2163 -0.000243872 14.4244 -0.000244141 17.6642C-0.000244409 20.904 0.604741 24.112 1.78017 27.1052Z" fill="white"/>
<path d="M33.0476 10.4348C30.6877 10.4348 28.7334 12.4569 28.7334 14.8986V41.6812C28.7334 44.1228 30.6877 46.1449 33.0476 46.1449H45.9901C48.35 46.1449 50.3043 44.1228 50.3043 41.6812V14.8986C50.3043 12.4569 48.35 10.4348 45.9901 10.4348H33.0476ZM33.0476 14.8986H45.9901V41.6812H33.0476V14.8986ZM20.105 32.7536V41.6812C20.105 49.0464 25.9291 55.0725 33.0476 55.0725H37.3617V59.5362H28.7334V64H50.3043V59.5362H41.6759V55.0725H45.9901C53.1085 55.0725 58.9327 49.0464 58.9327 41.6812V32.7536H54.6185V41.6812C54.6185 46.6337 50.7767 50.6087 45.9901 50.6087H33.0476C28.261 50.6087 24.4192 46.6337 24.4192 41.6812V32.7536H20.105Z" fill="white"/>
</svg>
