<svg width="57" height="23" viewBox="0 0 57 23" fill="none" xmlns="http://www.w3.org/2000/svg">
<path d="M17.0366 11.9969L17.0366 17.1143C17.0367 17.7993 16.8358 18.4694 16.4587 19.0413C16.0817 19.6133 15.5451 20.0621 14.9154 20.332L10.552 22.2008C9.90894 22.4763 9.19809 22.5528 8.51114 22.4205C7.82418 22.2881 7.19264 21.953 6.69798 21.4583L1.0312 15.7915C0.693589 15.4555 0.428103 15.0541 0.250992 14.612C0.0738805 14.1698 -0.0111302 13.6961 0.00116683 13.22C0.0134639 12.7438 0.122807 12.2752 0.322505 11.8427C0.522204 11.4103 0.808056 11.0231 1.16256 10.705C24.3643 -9.7781 47.2758 4.3106 55.1791 10.5759C55.5652 10.8826 55.8819 11.2675 56.1084 11.7054C56.335 12.1432 56.4663 12.6241 56.4937 13.1163C56.5211 13.6086 56.444 14.101 56.2674 14.5613C56.0909 15.0216 55.8189 15.4393 55.4693 15.7869L49.903 21.3532C49.4084 21.8479 48.7768 22.183 48.0899 22.3154C47.4029 22.4477 46.6921 22.3712 46.049 22.0957L41.6867 20.2258C41.0571 19.9558 40.5205 19.5071 40.1434 18.9351C39.7664 18.3631 39.5654 17.6931 39.5655 17.008V11.8907C39.5655 11.8907 28.1726 3.33511 17.0366 11.9969Z" fill="#F32E2E"/>
</svg>
