<svg width="116" height="92" viewBox="0 0 116 92" fill="none" xmlns="http://www.w3.org/2000/svg">
<path fill-rule="evenodd" clip-rule="evenodd" d="M101.301 35.6207C99.9007 38.8477 97.848 41.7798 95.2603 44.2497C91.1281 46.1729 89.079 43.0437 91.2034 40.3775C93.2583 38.4162 94.8884 36.0877 96.0005 33.5251C97.1126 30.9624 97.685 28.2158 97.685 25.4421C97.685 22.6683 97.1126 19.9217 96.0005 17.359C94.8884 14.7964 93.2583 12.4679 91.2034 10.5066C89.8986 7.84046 91.9477 5.49356 95.2603 6.63439C97.848 9.10425 99.9007 12.0364 101.301 15.2634C102.702 18.4904 103.422 21.9491 103.422 25.442C103.422 28.9349 102.702 32.3936 101.301 35.6207Z" fill="#FF7335"/>
<path fill-rule="evenodd" clip-rule="evenodd" d="M90.1483 33.2823C89.2028 35.4612 87.8169 37.4409 86.0697 39.1085C83.2797 40.407 81.8962 38.2942 83.3305 36.4941C84.718 35.1698 85.8186 33.5977 86.5695 31.8674C87.3204 30.1372 87.7068 28.2828 87.7068 26.41C87.7068 24.5372 87.3204 22.6827 86.5695 20.9525C85.8186 19.2222 84.718 17.6501 83.3305 16.3258C82.4496 14.5257 83.8331 12.9411 86.0697 13.7114C87.8169 15.379 89.2028 17.3587 90.1483 19.5375C91.0939 21.7164 91.5806 24.0516 91.5806 26.4099C91.5806 28.7683 91.0939 31.1035 90.1483 33.2823Z" fill="#FF7335"/>
<path fill-rule="evenodd" clip-rule="evenodd" d="M112.814 38.9637C111.119 43.2664 108.634 47.176 105.501 50.4691C101.59 51.9213 99.0188 48.8611 101.59 45.3062C104.078 42.6911 106.051 39.5865 107.397 36.1696C108.744 32.7528 109.437 29.0906 109.437 25.3923C109.437 21.6939 108.744 18.0318 107.397 14.6149C106.051 11.1981 104.078 8.09344 101.59 5.4783C99.5 2.42131 101 -1.0787 105.501 0.315387C108.634 3.60853 111.119 7.51805 112.814 11.8207C114.509 16.1234 115.382 20.735 115.382 25.3922C115.382 30.0494 114.509 34.661 112.814 38.9637Z" fill="#FF7335"/>
<path fill-rule="evenodd" clip-rule="evenodd" d="M14.0807 35.6207C15.4812 38.8477 17.5339 41.7798 20.1216 44.2497C24.2538 46.1729 26.3028 43.0437 24.1785 40.3775C22.1235 38.4162 20.4935 36.0877 19.3813 33.5251C18.2692 30.9624 17.6968 28.2158 17.6968 25.4421C17.6968 22.6683 18.2692 19.9217 19.3813 17.359C20.4935 14.7964 22.1235 12.4679 24.1785 10.5066C25.4832 7.84046 23.4342 5.49356 20.1216 6.63439C17.5339 9.10425 15.4812 12.0364 14.0807 15.2634C12.6803 18.4904 11.9595 21.9491 11.9595 25.442C11.9595 28.9349 12.6803 32.3936 14.0807 35.6207Z" fill="#FF7335"/>
<path fill-rule="evenodd" clip-rule="evenodd" d="M25.2335 33.2823C26.1791 35.4612 27.565 37.4409 29.3121 39.1085C32.1021 40.407 33.4856 38.2942 32.0513 36.4941C30.6638 35.1698 29.5633 33.5977 28.8124 31.8674C28.0615 30.1372 27.675 28.2828 27.675 26.41C27.675 24.5372 28.0615 22.6827 28.8124 20.9525C29.5633 19.2222 30.6638 17.6501 32.0513 16.3258C32.9322 14.5257 31.5487 12.9411 29.3121 13.7114C27.565 15.379 26.1791 17.3587 25.2335 19.5375C24.2879 21.7164 23.8013 24.0516 23.8013 26.4099C23.8013 28.7683 24.2879 31.1035 25.2335 33.2823Z" fill="#FF7335"/>
<path fill-rule="evenodd" clip-rule="evenodd" d="M2.56784 38.9637C4.26312 43.2664 6.74794 47.176 9.88041 50.4691C13.7914 51.9213 16.363 48.8611 13.7914 45.3062C11.3039 42.6911 9.33062 39.5865 7.98437 36.1696C6.63811 32.7528 5.9452 29.0906 5.9452 25.3923C5.9452 21.6939 6.63811 18.0318 7.98437 14.6149C9.33062 11.1981 11.3039 8.09344 13.7914 5.4783C15.8818 2.42131 14.3818 -1.0787 9.88042 0.315387C6.74794 3.60853 4.26312 7.51805 2.56784 11.8207C0.872553 16.1234 3.87282e-07 20.735 0 25.3922C-3.87282e-07 30.0494 0.872551 34.661 2.56784 38.9637Z" fill="#FF7335"/>
<path d="M47.6637 15C44.2602 15 41.4415 17.9067 41.4415 21.4167V59.9167C41.4415 63.4266 44.2602 66.3333 47.6637 66.3333H66.3304C69.734 66.3333 72.5526 63.4266 72.5526 59.9167V21.4167C72.5526 17.9067 69.734 15 66.3304 15H47.6637ZM47.6637 21.4167H66.3304V59.9167H47.6637V21.4167ZM28.9971 47.0833V59.9167C28.9971 70.5042 37.3971 79.1667 47.6637 79.1667H53.886V85.5833H41.4415V92H72.5526V85.5833H60.1082V79.1667H66.3304C76.5971 79.1667 84.9971 70.5042 84.9971 59.9167V47.0833H78.7748V59.9167C78.7748 67.036 73.234 72.75 66.3304 72.75H47.6637C40.7602 72.75 35.2193 67.036 35.2193 59.9167V47.0833H28.9971Z" fill="#FF7335"/>
</svg>
