<svg width="56" height="77" viewBox="0 0 56 77" fill="none" xmlns="http://www.w3.org/2000/svg">
<path d="M18.6667 0C15.2631 0 12.4444 2.90675 12.4444 6.41667V44.9167C12.4444 48.4266 15.2631 51.3333 18.6667 51.3333H37.3333C40.7369 51.3333 43.5556 48.4266 43.5556 44.9167V6.41667C43.5556 2.90675 40.7369 0 37.3333 0H18.6667ZM18.6667 6.41667H37.3333V44.9167H18.6667V6.41667ZM0 32.0833V44.9167C0 55.5042 8.4 64.1667 18.6667 64.1667H24.8889V70.5833H12.4444V77H43.5556V70.5833H31.1111V64.1667H37.3333C47.6 64.1667 56 55.5042 56 44.9167V32.0833H49.7778V44.9167C49.7778 52.036 44.2369 57.75 37.3333 57.75H18.6667C11.7631 57.75 6.22222 52.036 6.22222 44.9167V32.0833H0Z" fill="#FF7335"/>
</svg>
