<svg width="66" height="77" viewBox="0 0 66 77" fill="none" xmlns="http://www.w3.org/2000/svg">
<path d="M23.6667 0C20.2631 0 17.4444 2.90675 17.4444 6.41667V44.9167C17.4444 48.4266 20.2631 51.3333 23.6667 51.3333H42.3333C45.7369 51.3333 48.5556 48.4266 48.5556 44.9167V6.41667C48.5556 2.90675 45.7369 0 42.3333 0H23.6667ZM23.6667 6.41667H42.3333V44.9167H23.6667V6.41667ZM5 32.0833V44.9167C5 55.5042 13.4 64.1667 23.6667 64.1667H29.8889V70.5833H17.4444V77H48.5556V70.5833H36.1111V64.1667H42.3333C52.6 64.1667 61 55.5042 61 44.9167V32.0833H54.7778V44.9167C54.7778 52.036 49.2369 57.75 42.3333 57.75H23.6667C16.7631 57.75 11.2222 52.036 11.2222 44.9167V32.0833H5Z" fill="white"/>
<path d="M13.2662 7.44243L14.1325 8.31963C14.6957 8.88904 14.8256 9.79702 14.4646 10.5357C13.7571 11.9823 13.7571 13.706 14.4646 15.1372C14.8256 15.8759 14.6957 16.7839 14.1325 17.3533L13.2662 18.2305C12.4576 19.0615 11.1291 18.8615 10.566 17.8304C8.86216 14.7525 8.86216 10.9051 10.566 7.81177C11.1291 6.81145 12.4431 6.61139 13.2662 7.44243ZM3.90946 0.717198C4.54479 -0.144616 5.74325 -0.252343 6.4941 0.517134L7.33158 1.37895C7.96692 2.02531 8.05355 3.08719 7.51929 3.82588C3.69286 9.15066 3.69286 16.5376 7.51929 21.847C8.05355 22.5857 7.96692 23.6476 7.33158 24.294L6.4941 25.1558C5.74325 25.9099 4.54479 25.8175 3.90946 24.9557C-1.30315 17.8458 -1.30315 7.85794 3.90946 0.717198Z" fill="white"/>
<path d="M52.7338 7.44243L51.8675 8.31963C51.3043 8.88904 51.1744 9.79702 51.5354 10.5357C52.2429 11.9823 52.2429 13.706 51.5354 15.1372C51.1744 15.8759 51.3043 16.7839 51.8675 17.3533L52.7338 18.2305C53.5424 19.0615 54.8709 18.8615 55.434 17.8304C57.1378 14.7525 57.1378 10.9051 55.434 7.81177C54.8709 6.81145 53.5569 6.61139 52.7338 7.44243ZM62.0905 0.717198C61.4552 -0.144616 60.2567 -0.252343 59.5059 0.517134L58.6684 1.37895C58.0331 2.02531 57.9465 3.08719 58.4807 3.82588C62.3071 9.15066 62.3071 16.5376 58.4807 21.847C57.9465 22.5857 58.0331 23.6476 58.6684 24.294L59.5059 25.1558C60.2567 25.9099 61.4552 25.8175 62.0905 24.9557C67.3032 17.8458 67.3032 7.85794 62.0905 0.717198Z" fill="white"/>
</svg>
