<svg width="96" height="96" viewBox="0 0 96 96" fill="none" xmlns="http://www.w3.org/2000/svg">
    <path d="M82.286 37.714a30.546 30.546 0 0 1-8.657 21.374l4.844 4.845a37.646 37.646 0 0 0-4.412-56.39l-4.122 5.486a30.623 30.623 0 0 1 12.347 24.685z" fill="#9EA9B2"/>
    <path d="M65.143 37.714a17.15 17.15 0 0 1-3.093 9.792l4.893 4.896A23.942 23.942 0 0 0 64 19.827l-4.574 5.109a17.17 17.17 0 0 1 5.716 12.778zM96 91.152 4.848 0 0 4.848l12.72 12.72a37.653 37.653 0 0 0 9.223 50.321l4.114-5.486a30.748 30.748 0 0 1-8.324-39.826l7.532 7.533A23.884 23.884 0 0 0 32 55.6l4.574-5.108a17.166 17.166 0 0 1-5.716-12.779c.01-.626.057-1.25.137-1.872L44.571 49.42V96h6.858V56.277L91.152 96 96 91.152z" fill="#9EA9B2"/>
</svg>
