<svg xmlns="http://www.w3.org/2000/svg" viewBox="0 0 115.87 83.49">
  <title>Asset 3</title>
  <g id="Layer_2" data-name="Layer 2">
    <g id="Layer_1-2" data-name="Layer 1">
      <path d="M109.09,24.18a10.38,10.38,0,0,0-1.83-6.54,5.83,5.83,0,0,0-4.87-2.34,6,6,0,0,0-3.49,1.05,6.55,6.55,0,0,0-2.33,3.07,12.86,12.86,0,0,0-.81,4.76,12.75,12.75,0,0,0,.79,4.7,7,7,0,0,0,2.3,3.1A6.06,6.06,0,0,0,102.39,33a5.83,5.83,0,0,0,4.87-2.34A10.39,10.39,0,0,0,109.09,24.18Zm6.78,0a16.44,16.44,0,0,1-.94,5.66,12.5,12.5,0,0,1-2.72,4.45A12.19,12.19,0,0,1,108,37.16a15,15,0,0,1-5.56,1,14.4,14.4,0,0,1-5.52-1,12.4,12.4,0,0,1-4.25-2.86,12.81,12.81,0,0,1-2.72-4.43A16.76,16.76,0,0,1,89,24.18a16.52,16.52,0,0,1,.94-5.71A12.48,12.48,0,0,1,92.62,14a11.64,11.64,0,0,1,4.25-2.82,15.7,15.7,0,0,1,11.08,0,12,12,0,0,1,4.28,2.87,12.26,12.26,0,0,1,2.7,4.43A16.24,16.24,0,0,1,115.87,24.18ZM76.83,34V4.18a4.74,4.74,0,0,1,.89-3.12A3.07,3.07,0,0,1,80.17,0a3.16,3.16,0,0,1,2.48,1.06,4.51,4.51,0,0,1,.94,3.12V34a4.55,4.55,0,0,1-1,3.15,3.15,3.15,0,0,1-2.45,1,3.06,3.06,0,0,1-2.42-1.08A4.66,4.66,0,0,1,76.83,34ZM63.08,34V4.18A4.68,4.68,0,0,1,64,1.06,3.07,3.07,0,0,1,66.42,0a3.14,3.14,0,0,1,2.47,1.06,4.46,4.46,0,0,1,.94,3.12V34a4.55,4.55,0,0,1-1,3.15,3.17,3.17,0,0,1-2.45,1A3.08,3.08,0,0,1,64,37.06,4.66,4.66,0,0,1,63.08,34ZM38.59,22H50.83A8.3,8.3,0,0,0,49,16.7a5.49,5.49,0,0,0-4.25-1.76,5.39,5.39,0,0,0-4.16,1.79A8.89,8.89,0,0,0,38.59,22Zm13.21,3.9H38.59A9.33,9.33,0,0,0,39.5,30a6.52,6.52,0,0,0,2.4,2.69,6.37,6.37,0,0,0,3.32.91,8.38,8.38,0,0,0,2.2-.28,7.34,7.34,0,0,0,1.95-.91,14.89,14.89,0,0,0,1.73-1.33c.53-.47,1.22-1.11,2.06-1.91a2.18,2.18,0,0,1,1.48-.45,2.43,2.43,0,0,1,1.68.57A2.09,2.09,0,0,1,57,30.92a4.59,4.59,0,0,1-.72,2.19,8.69,8.69,0,0,1-2.18,2.39,12.24,12.24,0,0,1-3.63,1.88,15.2,15.2,0,0,1-5,.76c-4.33,0-7.71-1.26-10.11-3.77s-3.62-5.93-3.62-10.24a17.37,17.37,0,0,1,.89-5.64A12.58,12.58,0,0,1,35.17,14a11.09,11.09,0,0,1,4.21-2.84,14.69,14.69,0,0,1,5.54-1,12.83,12.83,0,0,1,6.78,1.71A11.09,11.09,0,0,1,56,16.25a11.71,11.71,0,0,1,1.41,5.49c0,1.72-.48,2.85-1.46,3.37A9.12,9.12,0,0,1,51.8,25.86ZM28.52,6.79h-8v26.8a5,5,0,0,1-1,3.44,3.4,3.4,0,0,1-2.63,1.11A3.5,3.5,0,0,1,14.19,37a5,5,0,0,1-1-3.42V6.79h-8A4,4,0,0,1,2.37,6a2.92,2.92,0,0,1-.92-2.24,2.88,2.88,0,0,1,.94-2.26A4.16,4.16,0,0,1,5.16.63H28.52a4,4,0,0,1,2.82.85,2.91,2.91,0,0,1,.94,2.24A2.9,2.9,0,0,1,31.34,6,4.13,4.13,0,0,1,28.52,6.79Z" fill="#fff"/>
      <path d="M22.75,74.41a8.41,8.41,0,0,1-1.34,4.66,8.86,8.86,0,0,1-3.91,3.25,14.7,14.7,0,0,1-6.11,1.17,13.86,13.86,0,0,1-7-1.6,9.43,9.43,0,0,1-3.18-3.07A7,7,0,0,1,0,75.07a2.51,2.51,0,0,1,.72-1.8,2.55,2.55,0,0,1,1.88-.76,2.18,2.18,0,0,1,1.54.59,4.53,4.53,0,0,1,1.09,1.74,12,12,0,0,0,1.18,2.28A4.9,4.9,0,0,0,8.2,78.64a6.59,6.59,0,0,0,3,.59A6.86,6.86,0,0,0,15.41,78,3.64,3.64,0,0,0,17,75a3.08,3.08,0,0,0-.88-2.3,5.42,5.42,0,0,0-2.24-1.37c-.92-.31-2.14-.65-3.68-1a27.55,27.55,0,0,1-5.17-1.68,8.59,8.59,0,0,1-3.3-2.63A6.92,6.92,0,0,1,.55,61.89a7.11,7.11,0,0,1,1.29-4.2,8,8,0,0,1,3.73-2.81,15,15,0,0,1,5.74-1,14,14,0,0,1,4.55.66,9.31,9.31,0,0,1,3.2,1.74,7.11,7.11,0,0,1,1.86,2.27,5.23,5.23,0,0,1,.58,2.32,2.75,2.75,0,0,1-.74,1.88,2.34,2.34,0,0,1-1.81.82,2.2,2.2,0,0,1-1.53-.49,7.15,7.15,0,0,1-1.11-1.64,7.29,7.29,0,0,0-1.88-2.52A5.44,5.44,0,0,0,10.92,58a6,6,0,0,0-3.63,1,2.82,2.82,0,0,0-1.37,2.36,2.34,2.34,0,0,0,.47,1.48,3.87,3.87,0,0,0,1.29,1.08,8.5,8.5,0,0,0,1.66.7c.56.17,1.48.42,2.77.74a45.07,45.07,0,0,1,4.37,1.25,13.17,13.17,0,0,1,3.34,1.66A6.67,6.67,0,0,1,22,70.75,7.8,7.8,0,0,1,22.75,74.41Z" fill="#fff"/>
      <path d="M41.91,72.65a8,8,0,0,0-1.44-5.08,4.64,4.64,0,0,0-3.85-1.82,4.77,4.77,0,0,0-2.75.82A5.07,5.07,0,0,0,32,69a9.7,9.7,0,0,0-.64,3.69A9.93,9.93,0,0,0,32,76.3a5.41,5.41,0,0,0,1.82,2.4,4.76,4.76,0,0,0,2.79.82,4.63,4.63,0,0,0,3.85-1.81A8,8,0,0,0,41.91,72.65Zm5.36,0A12.45,12.45,0,0,1,46.52,77,9.47,9.47,0,0,1,41,82.73a12.23,12.23,0,0,1-4.4.76,11.51,11.51,0,0,1-4.35-.78A9.56,9.56,0,0,1,26.76,77,12.83,12.83,0,0,1,26,72.65a12.65,12.65,0,0,1,.74-4.44,9.48,9.48,0,0,1,2.13-3.43,9.24,9.24,0,0,1,3.36-2.19,11.69,11.69,0,0,1,4.35-.78,11.89,11.89,0,0,1,4.4.78,9.46,9.46,0,0,1,5.5,5.66A12.43,12.43,0,0,1,47.27,72.65Z" fill="#fff"/>
      <path d="M70.61,76.89A4.63,4.63,0,0,1,70,79a7.28,7.28,0,0,1-1.82,2.16,9.16,9.16,0,0,1-3.06,1.64,13,13,0,0,1-4.18.63,10.24,10.24,0,0,1-7.72-2.87,10.71,10.71,0,0,1-2.77-7.74A12.69,12.69,0,0,1,51.72,67a9.05,9.05,0,0,1,3.67-3.88,12.36,12.36,0,0,1,9.53-.78,9.57,9.57,0,0,1,2.93,1.56,7.27,7.27,0,0,1,1.84,2,3.93,3.93,0,0,1,.64,2,2.11,2.11,0,0,1-.72,1.62,2.43,2.43,0,0,1-1.72.67A1.83,1.83,0,0,1,66.78,70a5.75,5.75,0,0,1-1-1.11,8,8,0,0,0-2-2.23,5,5,0,0,0-6.5,1.12,7.89,7.89,0,0,0-1.45,5,9.77,9.77,0,0,0,.37,2.77,6.48,6.48,0,0,0,1.08,2.15A4.76,4.76,0,0,0,59,79a5.37,5.37,0,0,0,2.18.44,4.86,4.86,0,0,0,2.74-.74,6.45,6.45,0,0,0,2-2.26,5.28,5.28,0,0,1,1-1.41,2,2,0,0,1,1.39-.51A2.07,2.07,0,0,1,70,75.3,2.41,2.41,0,0,1,70.61,76.89Z" fill="#fff"/>
      <path d="M78,59.33a2.87,2.87,0,0,1-1.92-.69,2.42,2.42,0,0,1-.78-1.93,2.39,2.39,0,0,1,.8-1.85,2.81,2.81,0,0,1,3.73-.08,2.34,2.34,0,0,1,.81,1.93,2.43,2.43,0,0,1-.79,1.93A2.71,2.71,0,0,1,78,59.33Zm2.64,5.51V80.25a3.45,3.45,0,0,1-.77,2.42,2.53,2.53,0,0,1-1.93.82A2.42,2.42,0,0,1,76,82.65a3.53,3.53,0,0,1-.73-2.4V65A3.41,3.41,0,0,1,76,62.61a2.49,2.49,0,0,1,1.91-.8,2.55,2.55,0,0,1,1.93.8A3.1,3.1,0,0,1,80.61,64.84Z" fill="#fff"/>
      <path d="M99.26,72.77a27.89,27.89,0,0,1-3.42.91c-1.48.32-2.51.55-3.09.71a3.94,3.94,0,0,0-1.64.88,2.21,2.21,0,0,0-.78,1.81,2.73,2.73,0,0,0,.92,2.07,3.41,3.41,0,0,0,2.4.84,6.3,6.3,0,0,0,2.91-.68,4.72,4.72,0,0,0,2-1.8,8.17,8.17,0,0,0,.72-4Zm.35,7.71a17,17,0,0,1-3.75,2.27,10.61,10.61,0,0,1-4,.74,7.88,7.88,0,0,1-3.62-.8,6.06,6.06,0,0,1-2.38-2.21,5.7,5.7,0,0,1-.84-3,5.36,5.36,0,0,1,1.39-3.73,6.89,6.89,0,0,1,3.81-2.07c.33-.08,1.17-.25,2.52-.53s2.48-.52,3.43-.74,2-.51,3.13-.84a5.46,5.46,0,0,0-.86-3.08c-.5-.67-1.53-1-3.11-1a6.5,6.5,0,0,0-3.06.57,4.91,4.91,0,0,0-1.76,1.7,16.69,16.69,0,0,1-1,1.5,1.7,1.7,0,0,1-1.29.35A2.37,2.37,0,0,1,86.58,69a1.94,1.94,0,0,1-.64-1.49,4.5,4.5,0,0,1,1-2.73A7.1,7.1,0,0,1,90,62.63a14.06,14.06,0,0,1,5.25-.86,14.7,14.7,0,0,1,5.53.84,5,5,0,0,1,2.83,2.62,11.31,11.31,0,0,1,.84,4.76c0,1.25,0,2.31,0,3.19s0,1.84,0,2.91a11.18,11.18,0,0,0,.49,3.14,9.6,9.6,0,0,1,.51,2.09,2,2,0,0,1-.78,1.5,2.55,2.55,0,0,1-1.74.67,2.39,2.39,0,0,1-1.62-.76A11.47,11.47,0,0,1,99.61,80.48Z" fill="#fff"/>
      <path d="M109.92,80.25V57.12a3.68,3.68,0,0,1,.7-2.42,2.72,2.72,0,0,1,3.89,0,3.42,3.42,0,0,1,.74,2.42V80.25a3.46,3.46,0,0,1-.76,2.44,2.52,2.52,0,0,1-1.93.8,2.46,2.46,0,0,1-1.92-.84A3.58,3.58,0,0,1,109.92,80.25Z" fill="#fff"/>
    </g>
  </g>
</svg>
